<svg width="462" height="451" viewBox="0 0 462 451" fill="none" xmlns="http://www.w3.org/2000/svg">
<path d="M6.63818 212.333C14.8745 205.969 25.1712 204.994 34.9819 207.881L35.9302 208.173L36.0239 208.202L36.1108 208.251C39.8384 210.322 42.6897 212.232 44.7085 216.178L44.9009 216.566L44.9478 216.663L44.9731 216.77C46.6351 223.787 47.2571 231.021 47.9321 238.083L48.0581 239.334C49.3618 251.813 51.7777 263.548 55.5679 275.495L55.9507 276.692L55.9517 276.693C56.2193 277.522 56.4865 278.351 56.7622 279.205L57.1206 280.278C64.4609 302.026 75.9328 320.93 90.9761 338.173L92.4673 339.865L92.4751 339.873C93.6651 341.241 94.7912 342.657 95.897 344.06L96.5317 344.822C98.0168 346.559 99.5328 348.028 101.333 349.548L101.335 349.551C103.449 351.348 105.561 353.155 107.604 355.074C126.497 372.722 150.641 385.431 175.295 393.044C176.418 393.391 176.418 393.392 177.563 393.745C194.206 398.747 211.639 402.085 228.999 402.589L230.678 402.629L230.725 402.63L230.771 402.635C236.094 403.227 240.16 404.637 243.795 408.825L244.146 409.239L244.213 409.32L244.262 409.413C249.142 418.797 247.471 430.71 244.967 440.254L244.948 440.329L244.917 440.401C243.951 442.608 242.937 444.236 241.574 445.574C240.217 446.905 238.569 447.894 236.426 448.905L236.295 448.966L236.153 448.989C232.973 449.479 229.856 449.475 226.738 449.438V449.437C225.821 449.429 224.905 449.421 223.96 449.412H223.946C188.932 448.586 153.992 436.396 123.523 419.879V419.878C122.932 419.563 122.341 419.248 121.733 418.923L121.731 418.922C112.397 413.911 103.851 408.104 95.4019 401.801V401.8C94.6153 401.217 93.8284 400.634 93.0181 400.033L93.0083 400.027C78.5292 389.027 65.5407 376.907 54.2163 362.621V362.62C53.3456 361.552 52.4736 360.485 51.6011 359.418L51.5981 359.415C22.8618 323.987 6.8318 281.514 2.63037 236.284L2.62939 236.285L2.33545 233.304L2.33447 233.295V233.286C1.7531 226.065 1.57814 218.75 6.4624 212.509L6.53955 212.41L6.63818 212.333Z" fill="#6B5CE7" stroke="#6B5CE7" stroke-width="2"/>
<path d="M247.505 2.74326C254.989 2.8506 263.124 4.16761 271.188 6.11923C287.316 10.0224 303.282 16.4955 313.413 21.089H313.412L315.991 22.2481L315.994 22.2491C353.77 39.3762 388.102 64.6456 412.8 98.3995L415.338 101.782L415.342 101.787C440.793 136.093 460.787 184.535 459 228.041L458.994 228.182L458.949 228.316C457.159 233.685 455.157 237.978 449.706 240.795L449.671 240.813L449.635 240.827C443.207 243.544 437.779 243.946 431.006 241.765L430.916 241.735L430.833 241.69C428.51 240.418 426.516 239.178 424.872 237.575C423.211 235.956 421.94 234.003 420.999 231.346L420.985 231.308L420.975 231.268C419.909 227.243 419.489 223.208 419.069 219.176L418.85 217.166C414.058 175.013 397.015 135.312 368.321 103.956L368.316 103.951C366.697 102.157 365.167 100.349 363.669 98.4542C360.549 94.8564 357.064 91.8938 353.355 88.7638L353.333 88.7462L350.818 86.5001V86.4991C319.23 58.9297 278.908 44.5729 237.402 41.7686L237.392 41.7677C232.512 41.3866 228.805 40.578 224.467 37.8458L224.317 37.7511L224.208 37.6104C222.076 34.8449 220.654 32.3259 219.785 29.6085C218.916 26.894 218.617 24.0383 218.657 20.6251V20.5655L218.665 20.5079C219.472 14.3162 222.875 10.4137 227.44 6.78036L227.511 6.72275L227.593 6.67978C233.131 3.73419 240.031 2.63608 247.505 2.74326Z" fill="#6B5CE7" stroke="#6B5CE7" stroke-width="2"/>
<path d="M102.987 212.46C110.542 205.736 123.41 204.421 132.734 208.581L133.176 208.783L133.257 208.821L133.33 208.873C136.434 211.081 138.502 213.229 139.971 215.787C141.248 218.011 142.041 220.495 142.703 223.488L142.981 224.802L142.985 224.83L142.989 224.857C143.348 227.338 143.644 229.818 143.93 232.294H143.929C146.364 252.874 155.024 269.609 169.707 284.293L169.711 284.297C169.712 284.298 169.713 284.299 169.714 284.301C169.715 284.302 169.717 284.302 169.718 284.303L169.726 284.311C169.727 284.312 169.728 284.314 169.729 284.315C169.73 284.316 169.731 284.317 169.733 284.318L169.74 284.326C169.741 284.327 169.742 284.329 169.743 284.33C169.744 284.331 169.746 284.332 169.747 284.333L169.751 284.337C169.752 284.338 169.753 284.339 169.754 284.341C169.755 284.342 169.757 284.342 169.758 284.343L169.766 284.351C169.767 284.352 169.768 284.354 169.769 284.355C169.77 284.356 169.771 284.357 169.773 284.358L169.78 284.366C169.782 284.367 169.782 284.369 169.783 284.37C169.784 284.371 169.786 284.372 169.787 284.373L169.795 284.381C169.796 284.382 169.797 284.383 169.798 284.384C169.799 284.386 169.801 284.386 169.802 284.387L169.81 284.395C169.811 284.396 169.812 284.398 169.813 284.399C169.814 284.4 169.815 284.401 169.817 284.402L169.82 284.406C169.822 284.407 169.822 284.409 169.823 284.41C169.824 284.411 169.826 284.412 169.827 284.413L169.835 284.421C169.836 284.422 169.837 284.423 169.838 284.425C169.839 284.426 169.841 284.426 169.842 284.427L169.85 284.435C169.851 284.436 169.852 284.438 169.853 284.439C169.854 284.44 169.855 284.441 169.857 284.442L169.864 284.45C169.866 284.451 169.866 284.453 169.867 284.454C169.868 284.455 169.87 284.456 169.871 284.457L169.879 284.465C169.88 284.466 169.881 284.467 169.882 284.468C169.883 284.47 169.885 284.47 169.886 284.471L169.89 284.475C169.891 284.476 169.892 284.478 169.893 284.479C169.894 284.48 169.896 284.481 169.897 284.482L169.904 284.49C169.906 284.491 169.906 284.493 169.907 284.494C169.908 284.495 169.91 284.496 169.911 284.497L169.919 284.505C169.92 284.506 169.921 284.507 169.922 284.509C169.923 284.51 169.925 284.51 169.926 284.511L169.934 284.519C169.935 284.52 169.936 284.522 169.937 284.523C169.938 284.524 169.939 284.525 169.941 284.526L169.948 284.534C169.949 284.535 169.95 284.537 169.951 284.538C169.952 284.539 169.954 284.54 169.955 284.541L169.959 284.545C169.96 284.546 169.961 284.547 169.962 284.549C169.963 284.55 169.965 284.55 169.966 284.551L169.974 284.559C169.975 284.56 169.976 284.562 169.977 284.563C169.978 284.564 169.979 284.565 169.981 284.566L169.988 284.574C169.99 284.575 169.99 284.577 169.991 284.578C169.992 284.579 169.994 284.58 169.995 284.581L170.003 284.589C170.004 284.59 170.005 284.591 170.006 284.592C170.007 284.594 170.009 284.594 170.01 284.595L170.018 284.603C170.019 284.604 170.02 284.606 170.021 284.607C170.022 284.608 170.023 284.609 170.025 284.61L170.032 284.618C170.033 284.619 170.034 284.621 170.035 284.622C170.036 284.623 170.038 284.624 170.039 284.625L170.043 284.629C170.044 284.63 170.045 284.631 170.046 284.633C170.047 284.634 170.049 284.634 170.05 284.635L170.058 284.643C170.059 284.644 170.06 284.646 170.061 284.647C170.062 284.648 170.063 284.649 170.065 284.65L170.072 284.658C170.074 284.659 170.074 284.661 170.075 284.662C170.076 284.663 170.078 284.664 170.079 284.665L170.087 284.673C170.088 284.674 170.089 284.675 170.09 284.676C170.091 284.678 170.093 284.678 170.094 284.679L170.102 284.687C170.103 284.688 170.103 284.69 170.105 284.691C170.106 284.692 170.107 284.693 170.109 284.694L170.116 284.702C170.117 284.703 170.118 284.705 170.119 284.706C170.12 284.707 170.122 284.708 170.123 284.709L170.127 284.713C170.128 284.714 170.129 284.715 170.13 284.717L170.134 284.72C170.135 284.722 170.137 284.722 170.138 284.723L170.142 284.727C170.143 284.728 170.144 284.73 170.145 284.731C170.146 284.732 170.147 284.733 170.149 284.734L170.156 284.742C170.158 284.743 170.158 284.745 170.159 284.746C170.16 284.747 170.162 284.748 170.163 284.749L170.171 284.757C170.172 284.758 170.173 284.759 170.174 284.76C170.175 284.762 170.177 284.762 170.178 284.763L170.186 284.771C170.187 284.772 170.187 284.774 170.189 284.775C170.19 284.776 170.191 284.777 170.193 284.778L170.2 284.786C170.201 284.787 170.202 284.789 170.203 284.79C170.204 284.791 170.206 284.792 170.207 284.793L170.215 284.801C170.216 284.802 170.217 284.803 170.218 284.804C170.219 284.806 170.221 284.806 170.222 284.807L170.23 284.815C170.231 284.816 170.231 284.818 170.233 284.819C170.234 284.82 170.235 284.821 170.236 284.822L170.244 284.83C170.245 284.831 170.246 284.833 170.247 284.834C170.248 284.835 170.25 284.836 170.251 284.837L170.259 284.844C170.26 284.846 170.261 284.847 170.262 284.848C170.263 284.849 170.265 284.85 170.266 284.851L170.27 284.855C170.271 284.856 170.271 284.858 170.273 284.859L170.276 284.863C170.278 284.864 170.279 284.865 170.28 284.866L170.284 284.87C170.285 284.871 170.286 284.873 170.287 284.874C170.288 284.875 170.29 284.876 170.291 284.877L170.299 284.884C170.3 284.886 170.301 284.887 170.302 284.888C170.303 284.89 170.305 284.89 170.306 284.891L170.314 284.899C170.315 284.9 170.315 284.902 170.317 284.903C170.318 284.904 170.319 284.905 170.32 284.906L170.328 284.914C170.329 284.915 170.33 284.917 170.331 284.918C170.332 284.919 170.334 284.92 170.335 284.921L170.343 284.928C170.344 284.93 170.345 284.931 170.346 284.932C170.347 284.933 170.349 284.934 170.35 284.935L170.358 284.943C170.359 284.944 170.359 284.946 170.36 284.947C170.362 284.948 170.363 284.949 170.364 284.95L170.372 284.958C170.373 284.959 170.374 284.961 170.375 284.962C170.376 284.963 170.378 284.963 170.379 284.965L170.387 284.972C170.388 284.974 170.389 284.975 170.39 284.976C170.391 284.977 170.393 284.978 170.394 284.979L170.401 284.987C170.403 284.988 170.403 284.99 170.404 284.991C170.406 284.992 170.407 284.993 170.408 284.994L170.416 285.002C170.417 285.003 170.418 285.004 170.419 285.006C170.42 285.007 170.422 285.007 170.423 285.009L170.431 285.016C170.432 285.017 170.433 285.019 170.434 285.02C170.435 285.021 170.437 285.022 170.438 285.023L170.445 285.031C170.447 285.032 170.447 285.034 170.448 285.035L170.452 285.039C170.453 285.04 170.455 285.041 170.456 285.042L170.46 285.046C170.461 285.047 170.462 285.048 170.463 285.05L170.467 285.053C170.468 285.055 170.47 285.055 170.471 285.056L170.479 285.064C170.48 285.065 170.48 285.067 170.482 285.068C170.483 285.069 170.484 285.07 170.485 285.071L170.493 285.079C170.494 285.08 170.495 285.082 170.496 285.083C170.497 285.084 170.499 285.085 170.5 285.086L170.508 285.093C170.509 285.095 170.51 285.096 170.511 285.097C170.512 285.099 170.514 285.099 170.515 285.1L170.523 285.108C170.524 285.109 170.524 285.111 170.526 285.112C170.527 285.113 170.528 285.114 170.529 285.115L170.537 285.123C170.538 285.124 170.539 285.126 170.54 285.127C170.541 285.128 170.543 285.128 170.544 285.13L170.552 285.137C170.553 285.139 170.554 285.14 170.555 285.141C170.556 285.142 170.558 285.143 170.559 285.144L170.567 285.152C170.568 285.153 170.568 285.155 170.569 285.156C170.571 285.157 170.572 285.158 170.573 285.159L170.581 285.167C170.582 285.168 170.583 285.169 170.584 285.171L170.588 285.175C170.589 285.176 170.591 285.176 170.592 285.177L170.6 285.185C170.601 285.186 170.602 285.188 170.603 285.189C170.604 285.19 170.605 285.191 170.607 285.192L170.614 285.2C170.616 285.201 170.616 285.203 170.617 285.204C170.618 285.205 170.62 285.206 170.621 285.207L170.629 285.215C170.63 285.216 170.631 285.217 170.632 285.218C170.633 285.22 170.635 285.22 170.636 285.221L170.644 285.229C170.645 285.23 170.645 285.232 170.647 285.233C170.648 285.234 170.649 285.235 170.651 285.236L170.662 285.248C170.663 285.249 170.664 285.251 170.665 285.252C170.666 285.253 170.668 285.253 170.669 285.255L170.677 285.262C170.678 285.264 170.679 285.265 170.68 285.266C170.681 285.267 170.683 285.268 170.684 285.269L170.692 285.277C170.693 285.278 170.693 285.28 170.694 285.281C170.696 285.282 170.697 285.283 170.698 285.284L170.706 285.292C170.707 285.293 170.708 285.294 170.709 285.296L170.713 285.3C170.714 285.301 170.716 285.301 170.717 285.302L170.725 285.31C170.726 285.311 170.727 285.313 170.728 285.314C170.729 285.315 170.73 285.316 170.732 285.317L170.739 285.325C170.741 285.326 170.741 285.328 170.742 285.329C170.743 285.33 170.745 285.331 170.746 285.332L170.754 285.34C170.755 285.341 170.756 285.342 170.757 285.343L170.761 285.347C170.762 285.349 170.764 285.349 170.765 285.35L170.773 285.358C170.774 285.359 170.774 285.361 170.776 285.362C170.777 285.363 170.778 285.364 170.779 285.365L170.787 285.373C170.788 285.374 170.789 285.376 170.79 285.377C170.791 285.378 170.793 285.378 170.794 285.38L170.806 285.391C170.807 285.392 170.808 285.394 170.809 285.395C170.81 285.396 170.811 285.397 170.813 285.398L170.82 285.406C170.822 285.407 170.822 285.409 170.823 285.41C170.824 285.411 170.826 285.412 170.827 285.413L170.839 285.425C170.84 285.426 170.841 285.427 170.842 285.428C170.843 285.43 170.845 285.43 170.846 285.431L170.854 285.439C170.855 285.44 170.855 285.442 170.857 285.443C170.858 285.444 170.859 285.445 170.86 285.446L170.872 285.458C170.873 285.459 170.874 285.461 170.875 285.462C170.876 285.463 170.878 285.463 170.879 285.465L170.887 285.472C170.888 285.474 170.889 285.475 170.89 285.476C170.891 285.477 170.893 285.478 170.894 285.479L170.905 285.491C170.907 285.492 170.907 285.494 170.908 285.495C170.909 285.496 170.911 285.497 170.912 285.498L170.92 285.506C170.921 285.507 170.922 285.508 170.923 285.509L170.927 285.513C170.928 285.515 170.93 285.515 170.931 285.516L170.939 285.524C170.94 285.525 170.94 285.527 170.942 285.528C170.943 285.529 170.944 285.53 170.945 285.531L170.957 285.543C170.958 285.544 170.959 285.545 170.96 285.547C170.961 285.548 170.963 285.548 170.964 285.55L170.972 285.557C170.973 285.558 170.974 285.56 170.975 285.561C170.976 285.562 170.978 285.563 170.979 285.564L170.99 285.576C170.991 285.577 170.992 285.579 170.993 285.58C170.994 285.581 170.996 285.582 170.997 285.583L171.009 285.594C171.01 285.596 171.011 285.597 171.012 285.598C171.013 285.599 171.015 285.6 171.016 285.601L171.024 285.609C171.025 285.61 171.025 285.612 171.026 285.613L171.03 285.617C171.032 285.618 171.033 285.619 171.034 285.62L171.042 285.628C171.043 285.629 171.044 285.63 171.045 285.632L171.049 285.635C171.05 285.637 171.052 285.637 171.053 285.638L171.061 285.646C171.062 285.647 171.062 285.649 171.064 285.65C171.065 285.651 171.066 285.652 171.068 285.653L171.079 285.665C171.08 285.666 171.081 285.668 171.082 285.669C171.083 285.67 171.085 285.67 171.086 285.672L171.098 285.683C171.099 285.684 171.1 285.686 171.101 285.687C171.102 285.688 171.103 285.689 171.105 285.69L171.116 285.702C171.117 285.703 171.118 285.705 171.119 285.706C171.12 285.707 171.122 285.708 171.123 285.709L171.135 285.72C171.136 285.722 171.137 285.723 171.138 285.724C171.139 285.725 171.141 285.726 171.142 285.727L171.153 285.739C171.155 285.74 171.155 285.742 171.156 285.743C171.157 285.744 171.159 285.745 171.16 285.746L171.172 285.758C171.173 285.759 171.174 285.76 171.175 285.761C171.176 285.763 171.178 285.763 171.179 285.764L171.191 285.776C171.192 285.777 171.192 285.779 171.193 285.78L171.197 285.784C171.199 285.785 171.2 285.786 171.201 285.787L171.209 285.795C171.21 285.796 171.211 285.797 171.212 285.799L171.216 285.802C171.217 285.804 171.219 285.804 171.22 285.805L171.232 285.817C171.233 285.818 171.233 285.82 171.234 285.821C171.236 285.822 171.237 285.823 171.238 285.824L171.25 285.836C171.251 285.837 171.252 285.838 171.253 285.84C171.254 285.841 171.256 285.841 171.257 285.842L171.269 285.854C171.27 285.855 171.27 285.857 171.272 285.858L171.276 285.862C171.277 285.863 171.278 285.864 171.279 285.865L171.291 285.877C171.292 285.878 171.293 285.879 171.294 285.881C171.295 285.882 171.297 285.882 171.298 285.884L171.31 285.895C171.311 285.896 171.311 285.898 171.313 285.899L171.317 285.903C171.318 285.904 171.319 285.905 171.32 285.906L171.332 285.918C171.333 285.919 171.334 285.92 171.335 285.922C171.336 285.923 171.338 285.923 171.339 285.925L171.351 285.936C171.352 285.937 171.352 285.939 171.354 285.94L171.358 285.944C171.359 285.945 171.36 285.946 171.361 285.947L171.373 285.959C171.374 285.96 171.375 285.961 171.376 285.963L171.38 285.967C171.381 285.968 171.383 285.968 171.384 285.969L171.396 285.981C171.397 285.982 171.397 285.984 171.399 285.985C171.4 285.986 171.401 285.987 171.402 285.988L171.418 286.004C171.419 286.005 171.42 286.006 171.421 286.008C171.422 286.009 171.424 286.009 171.425 286.01L171.437 286.022C171.438 286.023 171.438 286.025 171.44 286.026L171.443 286.03C171.445 286.031 171.446 286.032 171.447 286.033L171.459 286.045C171.46 286.046 171.461 286.047 171.462 286.049L171.466 286.052C171.467 286.054 171.469 286.054 171.47 286.055L171.482 286.067C171.483 286.068 171.483 286.07 171.484 286.071L171.488 286.075C171.49 286.076 171.491 286.077 171.492 286.078L171.508 286.093C171.509 286.095 171.51 286.096 171.511 286.097C171.512 286.099 171.514 286.099 171.515 286.1L171.53 286.116C171.532 286.117 171.532 286.119 171.533 286.12L171.537 286.124C171.538 286.125 171.54 286.126 171.541 286.127L171.553 286.138C171.554 286.14 171.555 286.141 171.556 286.142L171.56 286.146C171.561 286.147 171.562 286.148 171.564 286.149L171.579 286.165C171.58 286.166 171.581 286.168 171.582 286.169C171.583 286.17 171.585 286.17 171.586 286.172L171.589 286.175C187.113 300.647 206.74 306.937 227.457 309.176L229.466 309.38L229.504 309.384L229.541 309.389C233.154 310.012 235.954 311.061 238.38 312.716C240.797 314.364 242.781 316.573 244.814 319.419L244.899 319.538L244.946 319.677C247.75 327.894 246.767 337.705 243.147 345.394L243.124 345.444L243.095 345.491C242.049 347.201 241.074 348.439 239.851 349.444C238.633 350.445 237.223 351.169 235.38 351.926L235.296 351.96L235.207 351.978C222.625 354.639 208.706 353.015 195.398 349.092C182.081 345.165 169.307 338.917 158.981 332.251L158.973 332.245L158.965 332.24C128.985 312.073 107.149 282.721 99.7316 247.016L99.7296 247.006L99.7277 246.996C98.8632 242.36 98.2004 237.813 98.0021 233.061L97.8458 230.518L97.8448 230.506V230.493C97.6078 223.964 98.0789 217.779 102.917 212.529L102.95 212.493L102.987 212.46Z" fill="#6B5CE7" stroke="#6B5CE7" stroke-width="2"/>
<path d="M237.525 89.7847C244.437 88.9905 252.267 90.073 260.079 92.1128C274.731 95.9387 289.555 103.196 298.609 108.208L300.342 109.179L300.365 109.193C308.03 113.823 314.903 119.493 321.64 125.231L323.858 127.075L323.865 127.081C348.447 147.881 366.027 180.351 369.824 212.372L369.995 213.896L369.996 213.908L369.997 213.92C370.243 217.004 370.379 220.07 370.437 223.156L370.505 225.26V225.297C370.493 227.903 370.136 229.995 369.347 231.955C368.561 233.904 367.37 235.664 365.777 237.629L365.711 237.711L365.629 237.778C362.831 240.04 360.168 241.267 357.305 241.884C354.47 242.496 351.477 242.5 348.062 242.378L348.019 242.376L347.976 242.372C345.674 242.09 343.922 241.71 342.276 240.995C340.632 240.28 339.152 239.256 337.361 237.77L337.254 237.68L337.175 237.564C333.327 231.937 332.285 227.241 331.571 220.693L331.385 219.338C327.296 190.969 312.834 166.961 290.392 148.795C274.241 137.012 256.638 130.414 236.816 128.208L236.803 128.206C233.447 127.786 230.678 127.053 228.13 125.781C225.582 124.508 223.307 122.722 220.909 120.26L220.787 120.136L220.715 119.977C217.666 113.293 217.975 105.913 220.239 99.1216L220.29 98.9692L220.385 98.8403C224.522 93.2761 230.595 90.5811 237.525 89.7847Z" fill="#6B5CE7" stroke="#6B5CE7" stroke-width="2"/>
<path d="M260.938 190.813C268.045 197.597 272.228 205.67 275 215C275.192 215.632 275.384 216.263 275.582 216.914C278.038 229.169 275.009 240.3 268.75 250.812C261.896 260.898 251.304 268.344 239.172 270.75C226.291 272.233 214.469 270.253 203.852 262.492C201.337 260.466 199.143 258.424 197 256C196.446 255.388 195.891 254.775 195.32 254.145C186.194 243.392 183.683 231.825 184.765 218.077C186.038 206.821 192.094 197.365 200.25 189.688C219.058 174.94 242.539 176.461 260.938 190.813Z" fill="#6B5CE7"/>
</svg>
