<svg width="512" height="512" viewBox="0 0 512 512" fill="none" xmlns="http://www.w3.org/2000/svg" xmlns:xlink="http://www.w3.org/1999/xlink"><rect id="_r_8_" width="512" height="512" x="0" y="0" rx="128" fill="#6B5CE7" stroke="#FFFFFF" stroke-width="0" stroke-opacity="100%" paint-order="stroke"></rect><clipPath id="clip"><use xlink:href="#_r_8_"></use></clipPath><defs><linearGradient id="_r_9_" gradientUnits="userSpaceOnUse" gradientTransform="rotate(45)" style="transform-origin: center center;"><stop stop-color="#6B5CE7"></stop><stop offset="1" stop-color="#4A00E0"></stop></linearGradient><radialGradient id="_r_a_" cx="0" cy="0" r="1" gradientUnits="userSpaceOnUse" gradientTransform="translate(256) rotate(90) scale(512)"><stop stop-color="white"></stop><stop offset="1" stop-color="white" stop-opacity="0"></stop></radialGradient></defs><svg width="352" height="352" viewBox="0 0 462 451" fill="none" xmlns="http://www.w3.org/2000/svg" x="80" y="80" alignment-baseline="middle" style="color: rgb(255, 255, 255); width: 352px; height: 352px;">
<path d="M35.625 209.125C39.4237 211.235 42.1095 213.075 44 217C45.643 223.937 46.2593 231.097 46.9365 238.181C48.2552 251.616 50.8361 264.169 55 277C55.2683 277.831 55.5366 278.662 55.813 279.519C63.4202 302.582 75.6133 322.463 91.7205 340.53C92.8965 341.881 94.0122 343.284 95.1211 344.691C96.8587 346.826 98.5902 348.541 100.688 350.312C102.802 352.111 104.898 353.904 106.922 355.805C125.946 373.575 150.23 386.351 175 394C176.123 394.347 176.123 394.347 177.268 394.701C194.516 399.884 212.633 403.296 230.66 403.629C235.994 404.222 239.868 405.63 243.375 409.875C248.067 418.898 246.497 430.479 244 440C242.131 444.273 240.198 446.02 236 448C232.911 448.476 229.871 448.474 226.75 448.438C225.833 448.429 224.915 448.421 223.97 448.412C189.164 447.591 154.38 435.469 124 419C123.407 418.684 122.814 418.367 122.204 418.041C112.929 413.061 104.427 407.286 96 401C95.2124 400.416 94.4248 399.832 93.6133 399.23C79.1873 388.271 66.2629 376.208 55 362C54.1259 360.928 53.2509 359.856 52.375 358.785C23.7735 323.523 7.8092 281.241 3.625 236.188C3.52799 235.204 3.43099 234.22 3.33105 233.206C2.74899 225.976 2.62788 219.031 7.25 213.125C15.4353 206.8 25.7717 205.966 35.625 209.125Z" fill="#FEFEFE"></path>
<path d="M313 22C313.852 22.3829 314.704 22.7657 315.581 23.1602C353.236 40.2322 387.421 65.4056 412 99C412.846 100.128 413.692 101.255 414.539 102.383C439.899 136.566 459.775 184.789 458 228C456.232 233.304 454.338 237.275 449.246 239.906C443.024 242.536 437.842 242.915 431.313 240.812C426.705 238.291 423.729 236.058 421.941 231.012C420.898 227.075 420.485 223.116 420.064 219.072C415.571 175.975 398.364 135.304 369.059 103.281C367.448 101.496 365.926 99.6972 364.438 97.8125C361.255 94.1409 357.707 91.1284 354 88C353.17 87.2588 352.34 86.5176 351.484 85.7539C319.704 58.0127 279.16 43.5875 237.469 40.7708C232.687 40.3974 229.155 39.6171 225 37C220.836 31.5976 219.578 27.3339 219.656 20.6367C220.415 14.8166 223.588 11.1241 228.063 7.56251C249.393 -3.78351 292.794 12.8384 313 22Z" fill="#FEFEFE"></path>
<path d="M132.75 209.687C138.79 213.985 140.569 217.879 142 225C142.356 227.466 142.65 229.933 142.936 232.408C145.399 253.231 154.17 270.17 169 285C169.623 285.623 170.245 286.245 170.887 286.887C187.135 302.045 207.784 308.317 229.371 310.375C236.385 311.583 240.002 314.403 244 320C246.71 327.941 245.766 337.484 242.242 344.969C240.215 348.284 238.613 349.516 235 351C210.27 356.229 180.037 344.653 159.523 331.41C129.731 311.369 108.069 282.229 100.711 246.812C99.8497 242.194 99.1945 237.693 99 233C98.9484 232.161 98.8969 231.322 98.8437 230.457C98.6085 223.978 99.0983 218.149 103.652 213.207C110.992 206.674 123.711 205.434 132.75 209.687Z" fill="#FEFEFE"></path>
<path d="M299.848 110.049C307.44 114.635 314.262 120.26 321 126C321.732 126.608 322.464 127.217 323.219 127.844C347.997 148.81 365.616 181.749 369 214C369.245 217.064 369.379 220.114 369.437 223.188C369.46 223.882 369.482 224.577 369.505 225.292C369.482 230.316 368.132 233.136 365 237C359.636 241.337 354.915 241.622 348.098 241.379C343.582 240.827 341.519 239.92 338 237C334.279 231.558 333.268 227.043 332.562 220.562C328.707 191.32 313.994 166.605 291 148C274.696 136.101 256.921 129.439 236.927 127.214C230.37 126.394 226.316 124.377 221.625 119.563C218.707 113.166 218.981 106.057 221.187 99.4375C236.903 78.3033 282.29 100.082 299.848 110.049Z" fill="#FEFEFE"></path>
<path d="M260.938 190.813C268.045 197.597 272.228 205.67 275 215C275.192 215.632 275.384 216.263 275.582 216.914C278.038 229.169 275.009 240.3 268.75 250.812C261.896 260.898 251.304 268.344 239.172 270.75C226.291 272.233 214.469 270.253 203.852 262.492C201.337 260.466 199.143 258.424 197 256C196.446 255.388 195.891 254.775 195.32 254.145C186.193 243.392 183.683 231.825 184.765 218.077C186.038 206.821 192.094 197.365 200.25 189.688C219.058 174.94 242.539 176.461 260.938 190.813Z" fill="#FEFEFE"></path>
<path d="M214 442C216.5 443.375 216.5 443.375 219 445C219 445.66 219 446.32 219 447C225.27 446.67 231.54 446.34 238 446C236 448 236 448 233.956 448.243C232.719 448.237 232.719 448.237 231.457 448.23C230.548 448.229 229.638 448.227 228.701 448.225C227.748 448.212 226.795 448.2 225.812 448.188C224.412 448.187 224.412 448.187 222.982 448.186C217.888 448.153 213.021 447.868 208 447C208 446.67 208 446.34 208 446C209.98 445.67 211.96 445.34 214 445C214 444.01 214 443.02 214 442ZM233 445C235 446 235 446 235 446L233 445Z" fill="#F9FAFA"></path>
<path d="M239.336 4.98827C240.153 5.03532 240.97 5.08237 241.812 5.13085C242.658 5.19079 243.504 5.25073 244.375 5.31249C245.632 5.385 245.632 5.385 246.914 5.45897C251.335 5.73353 255.642 6.16955 260 6.99999C260 7.32999 260 7.65999 260 7.99999C257.03 7.99999 254.06 7.99999 251 7.99999C251 8.65999 251 9.31999 251 9.99999C249.68 9.66999 248.36 9.33999 247 8.99999C247.33 8.33999 247.66 7.67999 248 6.99999C242.39 6.99999 236.78 6.99999 231 6.99999C234.73 5.13503 235.523 4.75023 239.336 4.98827Z" fill="#F9F9F8"></path>
<path d="M203 442C203 442.99 203 443.98 203 445C203.66 445.33 204.32 445.66 205 446C203.416 445.885 201.833 445.758 200.25 445.625C199.368 445.555 198.487 445.486 197.578 445.414C195.009 445.002 193.242 444.288 191 443C195.462 441.194 198.31 440.883 203 442Z" fill="#FCFCFC"></path>
<path d="M22 299C22.99 300.32 23.98 301.64 25 303C24.01 303.495 24.01 303.495 23 304C23.33 306.31 23.66 308.62 24 311C21.0395 307.636 20.0771 304.308 19 300C19.99 299.67 20.98 299.34 22 299Z" fill="#FBFCFC"></path>
<path d="M210 441C211.938 441.812 211.938 441.812 214 443C214.33 443.99 214.66 444.98 215 446C208.945 446.977 208.945 446.977 207 447C206.34 446.34 205.68 445.68 205 445C205.639 444.711 206.279 444.423 206.938 444.125C209.152 443.172 209.152 443.172 210 441Z" fill="#FDFEFD"></path>
<path d="M11 210C11.99 210.33 12.98 210.66 14 211C11.1472 213.932 8.3492 216.643 5 219C5.47202 214.752 7.96656 212.8 11 210Z" fill="#FAFAFA"></path>
<path d="M260 6.99999C260 7.32999 260 7.65999 260 7.99999C257.03 7.99999 254.06 7.99999 251 7.99999C251 8.65999 251 9.31999 251 9.99999C249.68 9.66999 248.36 9.33999 247 8.99999C248 6.99999 248 6.99999 249.562 6.31249C253.165 5.85067 256.412 6.46174 260 6.99999Z" fill="#FBFBFB"></path>
<path d="M6 249C9 251 9 251 9.8125 252.75C10.0699 255.839 9.10506 258.14 8 261C7.67 261 7.34 261 7 261C6.01752 256.947 5.91841 253.161 6 249Z" fill="#FAFBFB"></path>
<path d="M452 212C453.98 212.495 453.98 212.495 456 213C455.67 214.65 455.34 216.3 455 218C454.01 218 453.02 218 452 218C451 215 451 215 452 212Z" fill="#FCFDFD"></path>
<path d="M453 232C453.99 232.66 454.98 233.32 456 234C454.68 235.32 453.36 236.64 452 238C451.67 237.01 451.34 236.02 451 235C451.66 234.01 452.32 233.02 453 232Z" fill="#F6F7F6"></path>
<path d="M198 442C198 442.66 198 443.32 198 444C198.66 444.33 199.32 444.66 200 445C197.03 444.67 194.06 444.34 191 444C191 443.67 191 443.34 191 443C195.75 442 195.75 442 198 442Z" fill="#FAFAFB"></path>
<path d="M444 161C446 163 446 163 446 167C445.34 167 444.68 167 444 167C443 164 443 164 444 161Z" fill="#FAFBFB"></path>
<path d="M223 442C223.66 442 224.32 442 225 442C224.67 443.32 224.34 444.64 224 446C223.01 445.67 222.02 445.34 221 445C221.66 444.01 222.32 443.02 223 442Z" fill="#FCFDFD"></path>
<path d="M6 215C6.99 215.33 7.98 215.66 9 216C7.68 216.99 6.36 217.98 5 219C5.33 217.68 5.66 216.36 6 215Z" fill="#FBFCFC"></path>
<path d="M207 347C207.99 347.33 208.98 347.66 210 348C208.02 348.99 208.02 348.99 206 350C206.33 349.01 206.66 348.02 207 347Z" fill="#FEFEFF"></path>
<path d="M210 441C211.485 441.99 211.485 441.99 213 443C212.01 443.33 211.02 443.66 210 444C210 443.01 210 442.02 210 441Z" fill="#FDFEFD"></path>
</svg>
</svg>